<?xml version="1.0" encoding="utf-8"?>
<!-- Generator: Adobe Illustrator 21.0.0, SVG Export Plug-In . SVG Version: 6.00 Build 0)  -->
<svg version="1.1" id="Layer_1" xmlns="http://www.w3.org/2000/svg" xmlns:xlink="http://www.w3.org/1999/xlink" x="0px" y="0px"
	 viewBox="0 0 249 290" style="enable-background:new 0 0 249 290;" xml:space="preserve">
<style type="text/css">
	.st0{fill:#141414;}
	.st1{display:none;}
	.st2{display:inline;}
</style>
<g id="Layer_1_1_">
	<g id="_x23_141414ff">
		<path class="st0" d="M101.5,10.5c0.5-0.4,1-1,1.5-1.4c0.6-0.4,1.2-0.7,1.9-0.5c10.8,0,21.7,0,32.5,0c10.8,0,21.7,0,32.5,0
			c0.8-0.1,1.4,0.1,2,0.4s1.2,0.8,1.6,1.3c7.5,7.5,15,15,22.5,22.5s15,15,22.5,22.6c0.3,0.3,0.6,0.7,0.9,1c0.3,0.4,0.6,0.7,0.8,1.1
			c-1.4,1.2-2.7,2.6-4,4c-1.3,1.3-2.7,2.7-4.2,3.7c-7.1-7.1-14.2-14.2-21.3-21.3s-14.3-14.2-21.3-21.3c-0.7-0.8-1.5-1.4-2.4-1.8
			s-1.9-0.6-2.9-0.6c-9,0-18.1,0-27.1,0s-18.1,0-27.1,0c-0.9-0.1-1.6,0.2-2.3,0.7c-0.7,0.4-1.3,1-1.9,1.6c-6.5,6.5-13,13-19.5,19.4
			S73.1,55,66.5,61.5c-0.1,9.3-0.1,18.6-0.2,28c0,9.3,0,18.6,0.1,27.9c4.7,4.5,9.3,9.2,13.9,13.9c4.6,4.7,9.3,9.3,14.1,13.7
			c7.1-7.2,14.4-14.4,21.7-21.5s14.6-14.2,21.8-21.3c3.4,2.9,6.6,6,9.8,9.1s6.3,6.3,9.4,9.4c5.3,5.4,10.6,10.7,15.9,16.1
			c5.3,5.4,10.5,10.8,15.7,16.3c-0.9,1.6-2.2,2.9-3.6,4.2c-1.4,1.3-3,2.5-4.2,3.9c-7.4-6.8-14.5-13.9-21.6-21s-14.1-14.3-21.3-21.4
			c-7.4,7-14.7,14.2-21.9,21.4c-7.3,7.2-14.5,14.4-21.9,21.4c-7.1-7.1-14.3-14.2-21.4-21.3s-14.2-14.2-21.3-21.5
			c-0.5,0.4-1.1,0.8-1.6,1.3c-0.5,0.4-1,0.9-1.5,1.4c-6.6,6.7-13.3,13.2-19.9,19.8c-6.7,6.6-13.3,13.2-19.9,19.9
			c-1.6-1-3.1-2.3-4.5-3.7s-2.7-2.7-4.2-3.9v-0.1v-0.1c0.1,0,0.2-0.1,0.3-0.1s0.2-0.1,0.3-0.1c8.4-8.5,16.7-16.9,25.1-25.4
			s16.8-16.9,25.2-25.3c0.6,0.4,1.2,0.9,1.8,1.3s1.2,0.9,1.9,1.3c0-7.5,0-15,0-22.5s0-15,0-22.5c-0.1-1,0.2-2,0.6-2.9
			c0.4-0.9,1-1.7,1.8-2.3c7.4-7.4,14.9-14.8,22.3-22.2S94,17.9,101.5,10.5z"/>
		<path class="st0" d="M137.3,145.3c0.4,0.2,1.1,0.6,1.5,0.8c16.7,16.6,33.5,33.2,49.9,50.1c-2.4,2.9-5.1,5.5-7.7,8.1
			c-14.6-14.1-28.7-28.6-43.1-42.8c-14.4,13.7-28.2,28.1-42.4,41.9c-1,1.3-2.2-0.5-3-1.1c-9-8.3-17.5-17.1-26.3-25.6
			c0,19,0,38.1,0,57.1c-0.2,2.6,1.5,4.9,3.3,6.6c11.7,11.6,23.4,23.3,35,35c1.7,1.8,4.1,2.9,6.6,2.7c17.3,0,34.6,0,51.9,0
			c2.8,0.2,5.5-0.9,7.3-3c13.1-13.2,26.4-26.3,39.6-39.5c0.8-0.5,1.6-2.2,2.7-1.6c2.8,2.3,5.3,5,7.6,7.8
			c-13.9,13.8-27.7,27.7-41.6,41.6c-2.4,2.4-4.6,5.2-7.8,6.4h-67.4c-1.8-0.9-3.3-2.2-4.7-3.6c-14.7-14.9-29.6-29.7-44.4-44.6
			c0.1-25.6-0.1-51.2,0-76.8c-1.2-0.9-2.8-4.2-4.4-2.1c-14,13.7-27.8,27.6-42,41.1c-2.9-2.2-5.3-5-7.9-7.6v-0.6
			C17.3,179,34,161.8,51.2,145c14.4,14.2,28.7,28.4,42.9,42.7C108.9,174.1,122.8,159.4,137.3,145.3z"/>
	</g>
</g>
<g id="Layer_2" class="st1">
	<polygon class="st2" points="97.1,286.1 44.7,236.2 45.7,49.9 96.9,-1.3 170.7,-1.3 226.2,54.9 204.3,76.2 158,29.3 109.6,29.3 
		76.2,62.6 75.3,223.2 109.3,255.5 158,255.5 204.6,209.3 226,231 170.7,286.1 	"/>
	<polygon points="172.6,290 103.7,290 54.7,243.5 55.7,56.6 103.6,8.7 172.6,8.7 220.8,57.5 212.2,65.9 167.6,20.7 108.6,20.7 
		67.7,61.6 66.7,238.3 108.5,278 167.6,278 212.3,233.6 220.7,242.2 	"/>
</g>
</svg>
