<?xml version="1.0" encoding="utf-8"?>
<!-- Generator: Adobe Illustrator 21.0.0, SVG Export Plug-In . SVG Version: 6.00 Build 0)  -->
<svg version="1.1" id="Layer_1" xmlns="http://www.w3.org/2000/svg" xmlns:xlink="http://www.w3.org/1999/xlink" x="0px" y="0px"
	 viewBox="0 0 237.3 293" style="enable-background:new 0 0 237.3 293;" xml:space="preserve">
<style type="text/css">
	.st0{fill:#141414;}
</style>
<g id="_x23_141414ff">
	<polygon class="st0" points="60,124.3 17.3,166.5 0,150.8 57.1,93.2 57.7,51.7 105.9,3.2 109.2,0.1 182.9,0 237.3,54.6 220.4,70.5 
		173.1,23.8 118.6,23.9 81,61 80.9,111.9 102.9,133.6 146.5,90.7 205.6,150 189.5,166.7 146.5,124.2 102.7,167 	"/>
	<path class="st0" d="M110,7.5l1.5-1.4L180.4,6l48.3,48.5l-8.2,7.7l-45-44.4l-59.4,0.1L75,58.5l-0.1,55.9l28,27.6l43.5-42.8
		l50.8,50.9l-7.8,8.1l-42.9-42.4l-43.8,42.8L60,115.8l-42.9,42.4l-8.4-7.6l0,0l0,0l50.6-51.1l3.7,2.6l0.6-47.9L110,7.5L110,7.5z"/>
	<polygon class="st0" points="60,167.1 17.3,209.3 0,193.5 59.3,133.9 102.9,176.4 146.5,133.5 205.6,192.8 189.5,209.5 146.5,167 
		102.7,209.8 	"/>
	<path class="st0" d="M102.9,184.8l43.5-42.8l50.8,50.9l-7.8,8.1l-42.9-42.4l-43.8,42.8L60,158.6L17.1,201l-8.4-7.7l0,0l0,0l50.6-51
		L102.9,184.8z"/>
	<polygon class="st0" points="109.2,292.9 105.9,289.8 57.7,241.3 56.6,144.1 80.7,167.8 81,232 118.6,269.1 173.1,269.2 
		220.4,222.5 237.3,238.4 182.9,293 	"/>
	<path class="st0" d="M74.7,170.3l0.3,64.2l41.1,40.6l59.4,0.1l45-44.4l8.2,7.7L180.4,287l-68.9-0.1l-1.5-1.4l0,0l-46.4-46.7
		l-0.8-80.2L74.7,170.3z"/>
</g>
</svg>
