<?xml version="1.0" encoding="UTF-8" ?>
<!DOCTYPE svg PUBLIC "-//W3C//DTD SVG 1.1//EN" "http://www.w3.org/Graphics/SVG/1.1/DTD/svg11.dtd">
<svg width="249pt" height="290pt" viewBox="0 0 249 290" version="1.1" xmlns="http://www.w3.org/2000/svg">
<g id="#141414ff">
<path fill="#141414" opacity="1.00" d=" M 101.46 10.50 C 102.44 9.61 103.44 8.34 104.95 8.59 C 126.63 8.60 148.31 8.56 169.99 8.61 C 171.49 8.43 172.69 9.35 173.66 10.38 C 188.64 25.41 203.64 40.43 218.60 55.49 C 219.20 56.17 219.77 56.88 220.31 57.61 C 217.48 60.11 215.15 63.16 212.04 65.33 C 197.90 51.05 183.48 37.04 169.39 22.71 C 168.04 21.21 166.15 20.20 164.09 20.32 C 146.01 20.38 127.93 20.31 109.86 20.37 C 108.11 20.24 106.81 21.53 105.65 22.63 C 92.68 35.64 79.59 48.53 66.53 61.45 C 66.41 80.08 66.26 98.72 66.47 117.35 C 75.94 126.42 84.83 136.12 94.51 144.97 C 108.76 130.47 123.54 116.47 138.03 102.20 C 144.80 107.97 150.89 114.46 157.21 120.70 C 167.80 131.44 178.49 142.11 188.83 153.10 C 187.09 156.27 183.47 158.38 180.99 161.15 C 166.21 147.51 152.39 132.84 138.04 118.73 C 123.22 132.80 108.97 147.49 94.18 161.60 C 79.95 147.34 65.59 133.22 51.51 118.81 C 50.44 119.63 49.40 120.48 48.46 121.45 C 35.27 134.76 21.81 147.80 8.69 161.18 C 5.41 159.10 2.96 155.97 0.00 153.59 L 0.00 153.42 C 0.13 153.37 0.39 153.26 0.53 153.20 C 17.27 136.27 33.96 119.28 50.81 102.45 C 52.02 103.34 53.24 104.23 54.51 105.03 C 54.46 90.02 54.46 75.01 54.50 60.01 C 54.38 57.97 55.40 56.15 56.86 54.81 C 71.70 40.02 86.60 25.27 101.46 10.50 Z" />
<path fill="#141414" opacity="1.00" d=" M 137.34 145.28 C 137.71 145.49 138.43 145.91 138.80 146.12 C 155.53 162.73 172.29 179.32 188.73 196.22 C 186.35 199.12 183.63 201.71 180.99 204.37 C 166.44 190.28 152.25 175.81 137.87 161.54 C 123.49 175.26 109.69 189.59 95.48 203.48 C 94.46 204.82 93.30 203.01 92.48 202.43 C 83.49 194.12 74.99 185.31 66.14 176.87 C 66.18 195.91 66.13 214.96 66.18 234.00 C 66.02 236.63 67.64 238.85 69.46 240.57 C 81.20 252.15 92.82 263.86 104.47 275.53 C 106.16 277.36 108.55 278.38 111.06 278.23 C 128.37 278.21 145.68 278.19 162.98 278.25 C 165.78 278.46 168.47 277.37 170.32 275.27 C 183.44 262.04 196.70 248.95 209.88 235.78 C 210.72 235.29 211.45 233.56 212.58 234.23 C 215.36 236.56 217.91 239.20 220.22 242.00 C 206.29 255.77 192.48 269.69 178.63 283.56 C 176.22 285.92 174.05 288.72 170.82 290.00 L 103.38 290.00 C 101.58 289.11 100.05 287.79 98.66 286.37 C 83.93 271.43 69.03 256.68 54.28 241.77 C 54.33 216.17 54.17 190.57 54.30 164.97 C 53.11 164.04 51.46 160.81 49.93 162.92 C 35.97 176.65 22.13 190.53 7.88 203.97 C 4.98 201.74 2.62 198.95 0.00 196.42 L 0.00 195.87 C 17.28 179.24 34.03 162.04 51.15 145.23 C 65.54 159.38 79.82 173.64 94.07 187.93 C 108.87 174.11 122.80 159.36 137.34 145.28 Z" />
</g>
</svg>
